<svg width="64" height="64" viewBox="0 0 64 64" fill="none" xmlns="http://www.w3.org/2000/svg">
<path fill-rule="evenodd" clip-rule="evenodd" d="M30.8972 2.11528C29.7402 2.20922 28.4465 2.48049 27.4371 2.84088C25.9556 3.36983 24.9012 3.96358 22.0753 5.86011C18.8705 8.01092 17.3881 8.79481 15.0273 9.58706C12.3537 10.4842 9.73137 10.9124 6.39855 10.9957C4.75476 11.0368 4.5093 11.0876 4.13192 11.465C3.6488 11.9481 3.67718 11.3771 3.70382 20.0908C3.72939 28.4612 3.71825 28.158 4.07637 30.2131C4.57367 33.0669 5.72391 36.2836 7.23597 39.0489C9.16242 42.5721 11.5838 45.7664 14.8329 49.0709C18.2935 52.5903 22.1596 55.7435 26.6054 58.6725C28.6286 60.0054 31.1863 61.5182 31.612 61.6336C32.1997 61.793 32.5501 61.6514 34.5922 60.4299C39.0384 57.7701 43.216 54.6666 46.9017 51.2852C48.0241 50.2555 50.2576 47.986 51.1555 46.9628C55.982 41.4625 58.9545 35.7843 59.9237 30.2131C60.2824 28.1511 60.2709 28.4657 60.296 20.0592C60.3221 11.3356 60.3527 11.9498 59.8679 11.465C59.4873 11.0844 59.2599 11.036 57.6609 10.995C52.3239 10.8581 48.251 9.7716 44.3982 7.45705C43.9884 7.21087 42.8216 6.45415 41.8053 5.7754C40.789 5.09672 39.6551 4.36062 39.2855 4.13966C37.5592 3.10762 35.8673 2.48615 34.0745 2.22555C33.4682 2.13745 31.4761 2.0683 30.8972 2.11528Z" fill="#2F62C3"/>
<path d="M34.0203 2.5981L34.0745 2.22555L30.9276 2.49051C31.1921 2.46905 31.8136 2.47348 32.4625 2.496C33.1104 2.51849 33.7404 2.55743 34.0203 2.5981ZM34.0203 2.5981C35.7589 2.85081 37.404 3.45342 39.0923 4.46278C39.4526 4.67818 40.5789 5.40914 41.5962 6.08847C42.6122 6.767 43.7859 7.52837 44.2044 7.77976C48.1225 10.1336 52.2615 11.2331 57.6512 11.3713C58.4623 11.3921 58.8799 11.4148 59.1429 11.4709C59.2645 11.4968 59.3387 11.5273 59.3965 11.5613C59.4565 11.5966 59.5161 11.6456 59.6017 11.7312L59.6017 11.7313C59.6748 11.8044 59.7166 11.842 59.7422 11.8651C59.7793 11.8985 59.7826 11.9015 59.7986 11.9378C59.8317 12.0127 59.8724 12.1874 59.8975 12.6913C59.9404 13.5526 59.9351 15.1998 59.9244 18.5263C59.9228 19.0017 59.9212 19.5114 59.9196 20.0581C59.8998 26.6534 59.9019 27.8661 59.7345 29.0549C59.6882 29.3835 59.629 29.7104 59.5528 30.1486C58.5984 35.6343 55.6666 41.2512 50.8725 46.7145C49.9846 47.7263 47.7608 49.9862 46.6472 51.0078C42.9809 54.3713 38.824 57.4596 34.3989 60.1068C33.3696 60.7225 32.7991 61.0457 32.4157 61.2005C32.2306 61.2753 32.1082 61.3025 32.0131 61.3089C31.921 61.3152 31.8329 61.3035 31.7106 61.2703L31.6282 61.5739L31.7106 61.2703L31.7101 61.2701C31.7094 61.2699 31.7081 61.2696 31.7062 61.2689L31.694 61.2647C31.6835 61.2609 31.6698 61.2556 31.6526 61.2484C31.6181 61.2341 31.5741 61.2142 31.5206 61.1885C31.4134 61.1371 31.2764 61.0664 31.1135 60.9784C30.7882 60.8027 30.3699 60.5638 29.8994 60.2856C28.9588 59.7292 27.8187 59.021 26.8126 58.3581C22.3872 55.4426 18.5419 52.306 15.1014 48.8069C11.8729 45.5236 9.47372 42.3568 7.56629 38.8683C6.07227 36.136 4.93688 32.9583 4.44725 30.1485C4.37127 29.7125 4.31219 29.3867 4.266 29.059C4.09854 27.8713 4.10036 26.6597 4.08029 20.0897C4.07873 19.5804 4.07717 19.1031 4.07571 18.6556C4.06463 15.2663 4.05915 13.588 4.10272 12.7101C4.12792 12.2021 4.16864 12.0204 4.20321 11.9402C4.22033 11.9005 4.22485 11.8963 4.26923 11.8552C4.29513 11.8313 4.33461 11.7947 4.39811 11.7313L4.39814 11.7312C4.48152 11.6478 4.54078 11.5997 4.6017 11.5647C4.66116 11.5305 4.73897 11.4993 4.86666 11.4729C5.14053 11.4162 5.57523 11.3929 6.40796 11.372C9.7717 11.2879 12.4321 10.855 15.1471 9.94396L15.1471 9.94396C17.5521 9.13687 19.0659 8.33317 22.2851 6.1727C25.1079 4.27826 26.1294 3.70753 27.5637 3.19542L27.4371 2.84088M34.0203 2.5981L27.4371 2.84088M27.4371 2.84088L27.5637 3.19542C28.5396 2.84699 29.8007 2.58201 30.9276 2.49051L27.4371 2.84088Z" stroke="#7EA2E7" stroke-opacity="0.1" stroke-width="0.752935"/>
<g filter="url(#filter0_i_517_796)">
<path fill-rule="evenodd" clip-rule="evenodd" d="M28.8396 16.4943C28.2591 16.7284 27.9164 18.3635 27.9164 20.8938V24.9212L25.1602 23.0482C21.3455 20.4566 20.2 20.6634 18.4164 24.2675C16.6535 27.8311 17.0678 28.7727 20.9593 30.0571C24.1794 31.1198 24.1543 32.0489 20.8677 33.4226C17.7104 34.7417 17.1173 36.0091 18.3108 38.8894C19.8802 42.6782 20.8514 42.9788 24.5398 40.817L27.8389 38.8835L28.0619 42.755C28.2591 46.1708 28.5125 46.7063 30.2133 47.3008C31.2732 47.6716 33.0176 47.755 34.0908 47.4862C35.9039 47.0305 36.0405 46.71 36.0405 42.9175V38.8385L39.3419 40.7727C41.158 41.837 42.9903 42.4936 43.4143 42.2314C43.8389 41.9692 44.836 40.4803 45.6307 38.9227C47.2813 35.6871 46.9733 35.1693 42.0258 32.8547L39.364 31.6095L42.3182 30.3776C47.107 28.3798 47.2444 28.1206 45.4564 24.4396C44.5826 22.6412 43.35 21.1752 42.7119 21.1752C42.0745 21.1752 40.3131 22.0179 38.7968 23.0482L36.0405 24.9212V20.9116C36.0405 17.9367 35.7392 16.786 34.8721 16.4536C33.5147 15.933 30.1757 15.9551 28.8396 16.4943Z" fill="url(#paint0_linear_517_796)"/>
</g>
<path d="M27.5669 24.2611V20.8938C27.5669 19.6167 27.6531 18.5486 27.8183 17.7612C27.9006 17.3685 28.0057 17.0306 28.1384 16.7674C28.2667 16.5126 28.4472 16.2757 28.7089 16.1701M27.5669 24.2611L39.792 31.8097L42.0258 32.8547C46.9733 35.1693 47.2813 35.6871 45.6306 38.9227C44.836 40.4803 43.8389 41.9692 43.4143 42.2314C42.9903 42.4936 41.158 41.837 39.3419 40.7727L36.3901 39.0433V39.4484M27.5669 24.2611L25.3566 22.7591L25.3566 22.7591C24.3982 22.108 23.5892 21.6197 22.886 21.3174C22.1829 21.0152 21.5524 20.8842 20.9645 20.9905C20.3688 21.0982 19.873 21.4388 19.4212 21.9641C18.974 22.484 18.5524 23.2047 18.1032 24.1125L18.1031 24.1125C17.6598 25.0088 17.3409 25.764 17.1832 26.4123C17.0246 27.0643 17.0207 27.6415 17.2475 28.1576C17.4734 28.6719 17.9039 29.0694 18.4967 29.4139C19.0878 29.7574 19.8716 30.0661 20.8497 30.389C21.6467 30.652 22.2149 30.8983 22.5759 31.1316C22.9538 31.376 23.0061 31.54 23.0041 31.6138C23.0016 31.7047 22.9193 31.8948 22.5177 32.1826C22.1359 32.4563 21.547 32.7599 20.733 33.1001L20.8677 33.4226M27.5669 24.2611L20.7329 33.1001M28.7089 16.1701L28.8396 16.4943L28.7088 16.1701C28.7089 16.1701 28.7089 16.1701 28.7089 16.1701ZM28.7089 16.1701C29.4407 15.8748 30.6644 15.7349 31.8455 15.727C33.0271 15.7191 34.2553 15.8427 34.9973 16.1273C35.5757 16.349 35.9202 16.842 36.1196 17.603C36.3157 18.3513 36.3901 19.422 36.3901 20.9116V24.2611L38.6004 22.7591L38.7751 23.0162L38.6004 22.7591C39.3724 22.2345 40.2071 21.7574 40.9331 21.41C41.296 21.2364 41.6364 21.093 41.9315 20.9922C42.2175 20.8945 42.4924 20.8257 42.7119 20.8257C42.9895 20.8257 43.2636 20.9764 43.4978 21.1536C43.7447 21.3402 44.0047 21.6005 44.2633 21.9081C44.7816 22.5245 45.3232 23.3657 45.7707 24.2869L45.7708 24.2869C46.215 25.2015 46.5563 25.9357 46.7299 26.5434C46.9058 27.1593 46.9269 27.7032 46.6626 28.2031C46.4081 28.6846 45.921 29.0605 45.249 29.4307C44.571 29.8043 43.6464 30.2022 42.4528 30.7002L42.4528 30.7002L40.2282 31.6279L42.1739 32.5381L42.0507 32.8014L42.1739 32.5381C43.41 33.1164 44.3729 33.5899 45.0899 34.0256C45.8021 34.4583 46.3136 34.8776 46.603 35.3648C46.9051 35.8732 46.9407 36.4113 46.7999 37.0144C46.6631 37.6005 46.354 38.2739 45.942 39.0815L45.6439 38.9294L45.942 39.0815C45.5389 39.8716 45.0841 40.6453 44.6741 41.2573C44.4693 41.5631 44.273 41.8326 44.0976 42.0452C43.9305 42.2478 43.7573 42.4303 43.5979 42.5288M43.5979 42.5288L43.4148 42.2323L43.5981 42.5286C43.598 42.5287 43.5979 42.5287 43.5979 42.5288ZM43.5979 42.5288C43.4742 42.6052 43.3326 42.6301 43.2108 42.6367C43.0838 42.6435 42.9441 42.6319 42.7996 42.6089C42.5102 42.5629 42.1621 42.4646 41.7823 42.3285C41.0202 42.0555 40.0884 41.6153 39.1652 41.0743L39.3365 40.7818L39.1651 41.0743L36.3901 39.4484M36.3901 39.4484V42.9175C36.3901 43.8646 36.3817 44.6076 36.3395 45.1924C36.2976 45.7733 36.2208 46.2302 36.0671 46.5903C35.9061 46.9676 35.6662 47.2264 35.3341 47.4167C35.0199 47.5967 34.6283 47.7115 34.176 47.8252L34.1757 47.8252C33.5951 47.9707 32.854 48.0171 32.1304 47.9825C31.4065 47.9479 30.6697 47.8307 30.098 47.6308M36.3901 39.4484L36.0405 39.2436V42.9175C36.0405 46.71 35.9039 47.0305 34.0908 47.4862C33.0176 47.755 31.2732 47.6716 30.2133 47.3008M30.098 47.6308L25.1602 23.0482C21.3455 20.4566 20.2 20.6634 18.4164 24.2675C16.6535 27.8311 17.0678 28.7727 20.9593 30.0571C24.1794 31.1198 24.1543 32.0489 20.8677 33.4226M30.098 47.6308C29.2241 47.3253 28.6205 47.0017 28.2578 46.2354C27.9224 45.5266 27.8105 44.4639 27.713 42.7752L27.713 42.7751L27.5228 39.4739M30.098 47.6308L30.2133 47.3008M30.2133 47.3008C28.5125 46.7063 28.2591 46.1708 28.0619 42.755L27.8615 39.2754L27.5228 39.4739M30.2133 47.3008L20.7329 33.1001M27.5228 39.4739L27.5002 39.082L24.5398 40.817C20.8514 42.9788 19.8802 42.6782 18.3108 38.8894C17.1173 36.0091 17.7104 34.7417 20.8677 33.4226M27.5228 39.4739L24.7165 41.1186C23.7902 41.6615 23.0131 42.0629 22.3442 42.2914C21.6736 42.5204 21.0757 42.5883 20.5274 42.4186C19.9765 42.2481 19.5358 41.8566 19.1413 41.2936C18.749 40.7337 18.3823 39.9753 17.9879 39.0232C17.3844 37.5668 17.1808 36.4064 17.6411 35.4224C18.0953 34.4513 19.1478 33.7624 20.7329 33.1001M20.8677 33.4226L20.7329 33.1001" stroke="black" stroke-opacity="0.07" stroke-width="0.699062"/>
<g filter="url(#filter1_i_517_796)">
<path fill-rule="evenodd" clip-rule="evenodd" d="M28.8396 16.4943C28.2591 16.7284 27.9164 18.3635 27.9164 20.8938V24.9212L25.1602 23.0482C21.3455 20.4566 20.2 20.6634 18.4164 24.2675C16.6535 27.8311 17.0678 28.7727 20.9593 30.0571C24.1794 31.1198 24.1543 32.0489 20.8677 33.4226C17.7104 34.7417 17.1173 36.0091 18.3108 38.8894C19.8802 42.6782 20.8514 42.9788 24.5398 40.817L27.8389 38.8835L28.0619 42.755C28.2591 46.1708 28.5125 46.7063 30.2133 47.3008C31.2732 47.6716 33.0176 47.755 34.0908 47.4862C35.9039 47.0305 36.0405 46.71 36.0405 42.9175V38.8385L39.3419 40.7727C41.158 41.837 42.9903 42.4936 43.4143 42.2314C43.8389 41.9692 44.836 40.4803 45.6307 38.9227C47.2813 35.6871 46.9733 35.1693 42.0258 32.8547L39.364 31.6095L42.3182 30.3776C47.107 28.3798 47.2444 28.1206 45.4564 24.4396C44.5826 22.6412 43.35 21.1752 42.7119 21.1752C42.0745 21.1752 40.3131 22.0179 38.7968 23.0482L36.0405 24.9212V20.9116C36.0405 17.9367 35.7392 16.786 34.8721 16.4536C33.5147 15.933 30.1757 15.9551 28.8396 16.4943Z" fill="url(#paint1_linear_517_796)"/>
</g>
<path d="M27.2174 23.6009V20.8938C27.2174 19.6047 27.3041 18.5099 27.4762 17.6895C27.5618 17.2812 27.6746 16.9109 27.8262 16.6101C27.9692 16.3263 28.1998 15.9986 28.578 15.846L27.2174 23.6009ZM27.2174 23.6009L25.5531 22.47L25.553 22.4699C24.59 21.8157 23.7587 21.3121 23.0241 20.9963C22.2894 20.6805 21.5851 20.5231 20.9023 20.6466C20.204 20.7728 19.6421 21.1713 19.1562 21.7362C18.6796 22.2902 18.2425 23.043 17.7899 23.9575L17.7899 23.9576C17.3439 24.8591 17.0107 25.6425 16.8435 26.3297C16.6746 27.0242 16.6588 27.6867 16.9274 28.2982C17.1946 28.9062 17.6939 29.3517 18.3211 29.7162C18.9447 30.0785 19.7567 30.3963 20.7402 30.7209C21.5291 30.9813 22.0632 31.2164 22.3861 31.4252C22.5223 31.5133 22.5932 31.5778 22.629 31.6172C22.591 31.6675 22.5049 31.7618 22.3141 31.8985C21.9646 32.149 21.4047 32.4405 20.5982 32.7776L27.2174 23.6009ZM27.2067 40.0643L24.8933 41.4202C24.8933 41.4202 24.8933 41.4202 24.8933 41.4202C23.9628 41.9655 23.1608 42.3819 22.4571 42.6222C21.7503 42.8636 21.0708 42.9526 20.424 42.7525C19.7722 42.5508 19.2747 42.0931 18.855 41.4941C18.4399 40.9017 18.0614 40.1139 17.665 39.157C17.0548 37.6844 16.7977 36.4006 17.3245 35.2744C17.8393 34.1739 19.0066 33.4426 20.5981 32.7777L27.2067 40.0643ZM27.2067 40.0643L27.364 42.7952L27.364 42.7953C27.4604 44.4649 27.5716 45.6024 27.9419 46.3849C28.3666 47.2824 29.0853 47.647 29.9825 47.9607C30.5959 48.1752 31.3685 48.296 32.1137 48.3316C32.8583 48.3672 33.6361 48.3208 34.2606 48.1643L34.2611 48.1642C34.7125 48.0507 35.1472 47.9265 35.5078 47.72C35.9043 47.4929 36.1969 47.1765 36.3885 46.7275C36.5655 46.3128 36.6455 45.8089 36.6881 45.2175C36.7313 44.6185 36.7396 43.8635 36.7396 42.9175V40.0583L38.9884 41.3759C39.9268 41.9258 40.8783 42.376 41.6644 42.6576C42.0551 42.7975 42.4257 42.9034 42.7447 42.9541C42.9039 42.9794 43.0697 42.9943 43.2295 42.9857C43.3792 42.9776 43.5875 42.9462 43.782 42.8259M27.2067 40.0643L43.782 42.8259M43.782 42.8259C43.7818 42.826 43.7816 42.8261 43.7815 42.8262L43.4143 42.2314L43.782 42.8259ZM43.782 42.8259C43.9945 42.6945 44.1988 42.4719 44.3673 42.2676C44.5524 42.0432 44.7557 41.7635 44.9645 41.4518C45.3827 40.8274 45.8445 40.0418 46.2534 39.2404L46.2534 39.2403C46.6647 38.4341 46.9927 37.7262 47.1403 37.0939C47.2959 36.4272 47.2631 35.7914 46.9035 35.1862C46.5692 34.6235 45.9969 34.1677 45.2714 33.7269C44.5362 33.2802 43.5573 32.7994 42.322 32.2215L42.0258 32.8547M43.782 42.8259L42.0258 32.8547M42.0258 32.8547L42.322 32.2215L41.0923 31.6462M42.0258 32.8547L41.0923 31.6462M41.0923 31.6462L42.5873 31.0228L42.5874 31.0228C43.7773 30.5263 44.7201 30.1212 45.4176 29.7369C46.1033 29.3591 46.6674 28.9421 46.9716 28.3665C47.2954 27.754 47.2541 27.106 47.0659 26.4474C46.8825 25.8052 46.5267 25.0432 46.0852 24.1342L46.0851 24.1341C45.6269 23.191 45.0703 22.3247 44.5308 21.6832C44.2622 21.3636 43.9834 21.0825 43.7086 20.8748C43.459 20.686 43.1076 20.4762 42.7119 20.4762C42.4322 20.4762 42.1121 20.5612 41.8186 20.6614C41.5067 20.7679 41.1532 20.9173 40.7822 21.0947C40.0398 21.4499 39.1899 21.9359 38.4039 22.47L38.4039 22.47L36.7396 23.6009V20.9116C36.7396 19.4199 36.6661 18.3098 36.4577 17.5144C36.2426 16.6935 35.8457 16.0782 35.1225 15.8009L41.0923 31.6462ZM31.8432 15.3775C33.0347 15.3695 34.3171 15.4921 35.1223 15.8009L31.8432 15.3775ZM31.8432 15.3775C30.6525 15.3855 29.3737 15.525 28.5782 15.8459L31.8432 15.3775ZM22.6629 31.6629C22.6628 31.6629 22.6624 31.6621 22.6618 31.6604C22.6626 31.6621 22.6629 31.6629 22.6629 31.6629Z" stroke="black" stroke-opacity="0.07" stroke-width="1.39812"/>
<g filter="url(#filter2_i_517_796)">
<path fill-rule="evenodd" clip-rule="evenodd" d="M28.8396 16.4943C28.2591 16.7284 27.9164 18.3635 27.9164 20.8938V24.9212L25.1602 23.0482C21.3455 20.4566 20.2 20.6634 18.4164 24.2675C16.6535 27.8311 17.0678 28.7727 20.9593 30.0571C24.1794 31.1198 24.1543 32.0489 20.8677 33.4226C17.7104 34.7417 17.1173 36.0091 18.3108 38.8894C19.8802 42.6782 20.8514 42.9788 24.5398 40.817L27.8389 38.8835L28.0619 42.755C28.2591 46.1708 28.5125 46.7063 30.2133 47.3008C31.2732 47.6716 33.0176 47.755 34.0908 47.4862C35.9039 47.0305 36.0405 46.71 36.0405 42.9175V38.8385L39.3419 40.7727C41.158 41.837 42.9903 42.4936 43.4143 42.2314C43.8389 41.9692 44.836 40.4803 45.6307 38.9227C47.2813 35.6871 46.9733 35.1693 42.0258 32.8547L39.364 31.6095L42.3182 30.3776C47.107 28.3798 47.2444 28.1206 45.4564 24.4396C44.5826 22.6412 43.35 21.1752 42.7119 21.1752C42.0745 21.1752 40.3131 22.0179 38.7968 23.0482L36.0405 24.9212V20.9116C36.0405 17.9367 35.7392 16.786 34.8721 16.4536C33.5147 15.933 30.1757 15.9551 28.8396 16.4943Z" fill="white"/>
</g>
<defs>
<filter id="filter0_i_517_796" x="16.7202" y="15.377" width="30.5083" height="33.3154" filterUnits="userSpaceOnUse" color-interpolation-filters="sRGB">
<feFlood flood-opacity="0" result="BackgroundImageFix"/>
<feBlend mode="normal" in="SourceGraphic" in2="BackgroundImageFix" result="shape"/>
<feColorMatrix in="SourceAlpha" type="matrix" values="0 0 0 0 0 0 0 0 0 0 0 0 0 0 0 0 0 0 127 0" result="hardAlpha"/>
<feOffset dy="0.349531"/>
<feGaussianBlur stdDeviation="0.174766"/>
<feComposite in2="hardAlpha" operator="arithmetic" k2="-1" k3="1"/>
<feColorMatrix type="matrix" values="0 0 0 0 0 0 0 0 0 0 0 0 0 0 0 0 0 0 0.25 0"/>
<feBlend mode="normal" in2="shape" result="effect1_innerShadow_517_796"/>
</filter>
<filter id="filter1_i_517_796" x="16.0215" y="14.6782" width="31.9062" height="34.7133" filterUnits="userSpaceOnUse" color-interpolation-filters="sRGB">
<feFlood flood-opacity="0" result="BackgroundImageFix"/>
<feBlend mode="normal" in="SourceGraphic" in2="BackgroundImageFix" result="shape"/>
<feColorMatrix in="SourceAlpha" type="matrix" values="0 0 0 0 0 0 0 0 0 0 0 0 0 0 0 0 0 0 127 0" result="hardAlpha"/>
<feOffset dy="0.349531"/>
<feGaussianBlur stdDeviation="0.174766"/>
<feComposite in2="hardAlpha" operator="arithmetic" k2="-1" k3="1"/>
<feColorMatrix type="matrix" values="0 0 0 0 0 0 0 0 0 0 0 0 0 0 0 0 0 0 0.25 0"/>
<feBlend mode="normal" in2="shape" result="effect1_innerShadow_517_796"/>
</filter>
<filter id="filter2_i_517_796" x="17.4194" y="16.0762" width="29.1104" height="31.5679" filterUnits="userSpaceOnUse" color-interpolation-filters="sRGB">
<feFlood flood-opacity="0" result="BackgroundImageFix"/>
<feBlend mode="normal" in="SourceGraphic" in2="BackgroundImageFix" result="shape"/>
<feColorMatrix in="SourceAlpha" type="matrix" values="0 0 0 0 0 0 0 0 0 0 0 0 0 0 0 0 0 0 127 0" result="hardAlpha"/>
<feOffset/>
<feGaussianBlur stdDeviation="0.393223"/>
<feComposite in2="hardAlpha" operator="arithmetic" k2="-1" k3="1"/>
<feColorMatrix type="matrix" values="0 0 0 0 0 0 0 0 0 0 0 0 0 0 0 0 0 0 0.25 0"/>
<feBlend mode="normal" in2="shape" result="effect1_innerShadow_517_796"/>
</filter>
<linearGradient id="paint0_linear_517_796" x1="24.0168" y1="18.5229" x2="38.3476" y2="42.3784" gradientUnits="userSpaceOnUse">
<stop stop-color="#424242"/>
<stop offset="1" stop-color="#282828"/>
</linearGradient>
<linearGradient id="paint1_linear_517_796" x1="24.0168" y1="18.5229" x2="38.3476" y2="42.3784" gradientUnits="userSpaceOnUse">
<stop stop-color="#424242"/>
<stop offset="1" stop-color="#282828"/>
</linearGradient>
</defs>
</svg>
